<svg width="48" height="48" viewBox="0 0 48 48" fill="none" xmlns="http://www.w3.org/2000/svg">
<g clip-path="url(#clip0_265_21000)">
<path fill-rule="evenodd" clip-rule="evenodd" d="M48 5.584C48 8.66797 45.5 11.168 42.4161 11.168C39.3322 11.168 36.8322 8.66797 36.8322 5.584C36.8322 2.50004 39.3322 0 42.4161 0C45.5 0 48 2.50004 48 5.584ZM21.2079 39.0007C27.9499 39.0007 33.4158 33.5351 33.4158 26.7924C33.4158 20.0497 27.9499 14.584 21.2079 14.584C14.4659 14.584 9 20.0497 9 26.7924C9 33.535 14.4659 39.0007 21.2079 39.0007ZM21.2079 48.0007C32.9207 48.0007 42.4158 38.5054 42.4158 26.7924C42.4158 15.0793 32.9207 5.58398 21.2079 5.58398C9.4951 5.58398 0 15.0793 0 26.7924C0 38.5054 9.4951 48.0007 21.2079 48.0007Z" fill="black"/>
<path fill-rule="evenodd" clip-rule="evenodd" d="M48 5.584C48 8.66797 45.5 11.168 42.4161 11.168C39.3322 11.168 36.8322 8.66797 36.8322 5.584C36.8322 2.50004 39.3322 0 42.4161 0C45.5 0 48 2.50004 48 5.584ZM21.2079 39.0007C27.9499 39.0007 33.4158 33.5351 33.4158 26.7924C33.4158 20.0497 27.9499 14.584 21.2079 14.584C14.4659 14.584 9 20.0497 9 26.7924C9 33.535 14.4659 39.0007 21.2079 39.0007ZM21.2079 48.0007C32.9207 48.0007 42.4158 38.5054 42.4158 26.7924C42.4158 15.0793 32.9207 5.58398 21.2079 5.58398C9.4951 5.58398 0 15.0793 0 26.7924C0 38.5054 9.4951 48.0007 21.2079 48.0007Z" fill="black" fill-opacity="0.2"/>
<path fill-rule="evenodd" clip-rule="evenodd" d="M48 5.584C48 8.66797 45.5 11.168 42.4161 11.168C39.3322 11.168 36.8322 8.66797 36.8322 5.584C36.8322 2.50004 39.3322 0 42.4161 0C45.5 0 48 2.50004 48 5.584ZM21.2079 39.0007C27.9499 39.0007 33.4158 33.5351 33.4158 26.7924C33.4158 20.0497 27.9499 14.584 21.2079 14.584C14.4659 14.584 9 20.0497 9 26.7924C9 33.535 14.4659 39.0007 21.2079 39.0007ZM21.2079 48.0007C32.9207 48.0007 42.4158 38.5054 42.4158 26.7924C42.4158 15.0793 32.9207 5.58398 21.2079 5.58398C9.4951 5.58398 0 15.0793 0 26.7924C0 38.5054 9.4951 48.0007 21.2079 48.0007Z" fill="black" fill-opacity="0.2"/>
</g>
<defs>
<clipPath id="clip0_265_21000">
<rect width="48" height="48" fill="white"/>
</clipPath>
</defs>
</svg>
